<?xml version="1.0" encoding="utf-8"?>
<!-- Generator: Adobe Illustrator 16.0.0, SVG Export Plug-In . SVG Version: 6.00 Build 0)  -->
<!DOCTYPE svg PUBLIC "-//W3C//DTD SVG 1.1//EN" "http://www.w3.org/Graphics/SVG/1.1/DTD/svg11.dtd">
<svg version="1.1" id="Layer_1" xmlns="http://www.w3.org/2000/svg" xmlns:xlink="http://www.w3.org/1999/xlink" x="0px" y="0px"
	 width="612px" height="792px" viewBox="0 0 612 792" enable-background="new 0 0 612 792" xml:space="preserve">
<title>Asset 2</title>
<g id="Layer_2">
	<g id="Layer_1-2">
		<polygon fill="#FFCD04" points="120.537,561.744 219.394,256.422 176.938,256.422 78.137,561.744 		"/>
		<path d="M200.65,389.944l-12.251,37.996l-6.154,11.292l-19.704,61.482l-1.355,11.63l-14.905,46.352
			c18.721,5.2,37.887,8.64,57.248,10.275l15.582,4.742c16.458,1.358,33,1.358,49.457,0c11.233-1.521,22.306-4.053,33.084-7.564
			l18.688-8.074c8.078-1.945,16.363-2.894,24.672-2.822l37.714,1.129l13.099-40.593l8.017-17.502l19.647-61.539l3.613-18.688
			l10.105-31.447l5.928-11.292l19.704-61.2v-7.283l16.091-50.134c0,0-11.574-0.395-37.771-1.524
			c-10.225-0.128-20.409,1.3-30.205,4.234l-11.291,0.791c-10.7,3.814-21.741,6.593-32.972,8.299
			c-16.529,1.451-33.153,1.451-49.683,0l-16.372,1.411c-19.622-1.583-39.042-5.081-57.982-10.444l-15.864,49.344l-5.025,8.243
			l-19.817,60.974L200.65,389.944z"/>
		<path fill="#FFFFFF" d="M278.223,390.226c16.457,1.369,33,1.369,49.457,0c11.335-1.65,22.488-4.373,33.31-8.13l19.647-61.2
			c-10.801,3.775-21.935,6.517-33.254,8.187c-16.457,1.367-32.999,1.367-49.456,0L278.223,390.226z"/>
		<path fill="#FFFFFF" d="M238.702,512.626c16.495,1.376,33.075,1.376,49.57,0c11.298-1.681,22.413-4.422,33.197-8.187
			l19.647-61.143c-10.784,3.752-21.899,6.475-33.197,8.13c-16.457,1.361-32.999,1.361-49.457,0L238.702,512.626z"/>
		<path fill="#FFFFFF" d="M399.889,260.261l-19.365,60.354c14.122-4.763,28.909-7.259,43.812-7.396l38.561,1.186l19.647-60.861
			c0,0-11.292,0-38.561-1.524C428.919,252.2,414,254.988,399.889,260.261z"/>
		<path fill="#FFFFFF" d="M162.541,500.714c19.672,5.374,39.801,8.908,60.127,10.558c5.646,0.564,10.896,1.016,16.034,1.354
			l-19.591,61.087c-5.194-0.338-10.501-0.847-16.146-1.354c-20.374-1.636-40.545-5.209-60.24-10.671L162.541,500.714z"/>
		<path fill="#FFFFFF" d="M297.813,328.97l19.421-60.127c-5.081-0.396-10.388-0.847-15.921-1.412
			c-20.328-1.774-40.431-5.556-60.014-11.292l-19.534,60.917c19.611,5.402,39.684,8.956,59.958,10.614
			C287.312,328.179,292.676,328.575,297.813,328.97z"/>
		<path fill="#FFFFFF" d="M182.245,439.4l19.704-61.369c19.628,5.413,39.721,8.966,60.015,10.614
			c5.646,0.564,10.953,1.016,16.147,1.355l-19.647,61.426c-5.194-0.339-10.501-0.791-16.147-1.355
			C222,448.414,201.888,444.842,182.245,439.4z"/>
		<path fill="#FFFFFF" d="M403.784,497.947l-38.447-1.354c-14.923,0.124-29.729,2.62-43.868,7.396l-19.873,61.934
			c14.171-4.881,29-7.584,43.98-8.017c27.213,0.508,38.504,1.129,38.504,1.129l19.647-61.03"/>
		<path fill="#FFFFFF" d="M341.116,443.07l19.761-61.256c14.126-4.749,28.908-7.264,43.811-7.452
			c26.874,0.734,38.504,1.129,38.504,1.129l-19.703,61.256c0,0-11.292-0.451-38.504-1.186
			C370.06,435.76,355.258,438.294,341.116,443.07z"/>
		<path d="M492.762,263.197c0.155-5.298,4.577-9.467,9.876-9.312c5.298,0.156,9.467,4.578,9.311,9.876
			c-0.152,5.187-4.399,9.313-9.589,9.315c-5.27,0.035-9.569-4.209-9.604-9.479C492.755,263.464,492.757,263.331,492.762,263.197z
			 M502.359,275.053c6.547-0.093,11.779-5.477,11.686-12.024s-5.478-11.779-12.024-11.686c-6.48,0.092-11.687,5.372-11.687,11.854
			c-0.065,6.517,5.164,11.852,11.681,11.917c0.152,0.001,0.305,0,0.457-0.004L502.359,275.053z M499.875,264.157h2.371l3.613,5.646
			h2.314l-3.896-6.041c1.965,0.002,3.559-1.588,3.562-3.553c0-0.058-0.002-0.116-0.004-0.173c0-2.653-1.581-3.896-4.799-3.896
			h-5.194v13.663h2.089L499.875,264.157z M499.875,262.406v-4.234h2.823c1.411,0,2.992,0.282,2.992,1.976s-1.581,2.258-3.331,2.258
			H499.875z"/>
	</g>
</g>
</svg>
